<svg enable-background="new 0 0 222.9 222.9" viewBox="0 0 222.9 222.9" xmlns="http://www.w3.org/2000/svg"><path d="m222.9 111.4c0 61.6-49.9 111.4-111.4 111.4-61.6.1-111.5-49.8-111.5-111.4 0-61.5 49.9-111.4 111.4-111.4 61.6 0 111.5 49.9 111.5 111.4z" fill="#ffce00"/><path d="m111.4 179.1c-12.3 0-22.2-9.9-22.2-22.2v-13c0-12.3 9.9-22.2 22.2-22.2 12.3 0 22.2 9.9 22.2 22.2v13c.1 12.3-9.9 22.2-22.2 22.2z" fill="#562912"/><path d="m173.1 86.9-14.7-5.1v127.8c10.8-4.2 20.8-10.2 29.5-17.6v-110.2z" fill="#61c0eb"/><path d="m49.8 86.9-14.7-5.1v110.2c8.7 7.4 18.6 13.4 29.4 17.6v-127.8z" fill="#61c0eb"/><g fill="#562912"><path d="m37.8 79.4c-1.2-.7-2.7.1-2.7 1.5 0 8.1 6.6 14.7 14.7 14.7s14.7-6.6 14.7-14.7c0-1.4-1.5-2.2-2.7-1.5-3.5 2.2-7.6 3.4-12 3.4-4.4.1-8.5-1.2-12-3.4z"/><path d="m161 79.4c-1.2-.7-2.7.1-2.7 1.5 0 8.1 6.6 14.7 14.7 14.7s14.7-6.6 14.7-14.7c0-1.4-1.5-2.2-2.7-1.5-3.5 2.2-7.6 3.4-12 3.4-4.3.1-8.5-1.2-12-3.4z"/><path d="m183.6 65.3c-.2 0-.4 0-.6 0-18.1-2.8-27.2-17.5-27.6-18.1-1-1.7-.5-3.9 1.2-5 1.7-1 3.9-.5 5 1.2.1.2 7.9 12.4 22.5 14.7 2 .3 3.3 2.2 3 4.1-.2 1.8-1.7 3.1-3.5 3.1z"/><path d="m39.3 65.3c-1.8 0-3.3-1.3-3.6-3.1-.3-2 1.1-3.8 3-4.1 14.7-2.3 22.4-14.6 22.5-14.7 1-1.7 3.3-2.2 5-1.2s2.3 3.3 1.2 5c-.4.6-9.5 15.3-27.6 18.1-.1 0-.3 0-.5 0z"/></g></svg>