<svg enable-background="new 0 0 230.6 230.6" viewBox="0 0 230.6 230.6" xmlns="http://www.w3.org/2000/svg"><path d="m230.6 115.3c0 63.7-51.6 115.3-115.3 115.3s-115.3-51.6-115.3-115.3 51.6-115.3 115.3-115.3 115.3 51.6 115.3 115.3z" fill="#ffce00"/><g fill="#562912"><path d="m113.5 168.4c-1.7 0-3.2-1.2-3.5-3-.3-1.9.9-3.8 2.9-4.1 4-.7 10.8-4.1 12.1-7.5.3-.8.4-1.7-.9-3.3-2.5-3.1-9.2-.1-12.8 2.6-1.6 1.2-3.8.8-5-.8s-.8-3.8.8-5c7.4-5.4 17.3-7.9 22.6-1.3 3.3 4.1 2.9 7.8 2 10.3-2.7 7.2-13 11.2-17.5 12-.3.1-.5.1-.7.1z"/><path d="m121 187.7c-4.6 0-9.6-2.2-13.9-5.3-1.6-1.2-1.9-3.4-.8-5 1.2-1.6 3.4-1.9 5-.8 3.6 2.7 10.3 5.7 12.8 2.6 1.3-1.6 1.1-2.5.9-3.3-1.3-3.5-8.1-6.8-12.1-7.5-1.9-.3-3.2-2.2-2.9-4.1s2.2-3.2 4.1-2.9c4.6.8 14.8 4.8 17.5 12 .9 2.4 1.3 6.2-2 10.3-2.2 2.8-5.3 4-8.6 4z"/><path d="m147 121c-1.4 0-2.9-.5-4-1.7-2.2-2.2-2.2-5.8 0-8 6.9-6.9 21.9-12.7 34.5 0 2.2 2.2 2.2 5.8 0 8s-5.8 2.2-8 0c-9-9-17.6-.9-18.6 0-1.1 1.1-2.5 1.7-3.9 1.7z"/><path d="m84.5 111.9c0 8.8-5.5 15.9-12.2 15.9s-12.2-7.1-12.2-15.9 5.5-15.9 12.2-15.9 12.2 7.1 12.2 15.9z"/></g><path d="m196.9 153.7c33.8-15.9 45.3 22.2 25.9 38.5-15.3 12.8-48.9 22-48.9 22-1.8-2.7-19.1-29.2-21.9-49-3.7-25.1 30.2-45.9 44.9-11.5z" fill="#cc342f"/><path d="m45.9 80.7c-.1 0-.2 0-.2 0-1.8-.1-3.1-1.7-3-3.5.6-7.9 4.2-15.5 10.1-20.8 5.8-5.3 13.7-8.4 21.7-8.2 1.8 0 3.2 1.5 3.2 3.3s-1.5 3.4-3.3 3.2c-6.2 0-12.5 2.2-17.1 6.5-4.6 4.2-7.5 10.2-8 16.5-.3 1.7-1.7 3-3.4 3z" fill="#562912"/><path d="m177.4 95.5c-.7 0-1.5-.2-2.1-.7-8.8-7.3-17.9-8-26.2-2-1.5 1-3.5.7-4.5-.7-1-1.5-.7-3.5.7-4.5 10.7-7.6 23.1-6.8 34.1 2.3 1.4 1.1 1.6 3.2.4 4.6-.5.6-1.5 1-2.4 1z" fill="#562912"/></svg>