<svg enable-background="new 0 0 72.6 72.6" viewBox="0 0 72.6 72.6" xmlns="http://www.w3.org/2000/svg" xmlns:xlink="http://www.w3.org/1999/xlink"><clipPath id="a"><path d="m0 0h72.6v72.6h-72.6z"/></clipPath><path d="m0 0h72.6v72.6h-72.6z" fill="#000f9f"/><path d="m68.5 0-27.7 35.8h4.2l27.6-35.8z" fill="#c23430"/><path clip-path="url(#a)" d="m55.5 51.8c1.3 3.5 3.9 12.7 4.9 13.5h-6.8s0-1.4-.3-2.4c-.3-1.1-2.8-9-2.8-9h-10.9l-1.7 2.4s2.1 6.4 2.2 6.7c.2.6 1.2 2.3 1.2 2.3h-6.6s-.2-1-.2-1.4c-.1-.3-.6-2.1-.6-2.1s-1.5 1.6-1.9 2.4-.6 1.1-.6 1.1h-5.1s-.2-1-.2-1.4c-.1-.3-.7-2.3-.7-2.3s-1.4 1.7-1.8 2.5-.6 1.2-.6 1.2h-5.1s1.4-1.4 1.9-2c.8-1 4-5.1 4-5.1l-1.3-4.4h-10.8s-6.2 8.1-6.4 8.3-2 2.8-2.1 3.1h-3.2v-2c.1-.1.1-.1.1-.1.1-.1 4.7-5.7 8.9-11.3 3.8-4.9 7.3-9.6 7.6-10.1.8-1.1 1.8-3.4 1.8-3.4h5.6s.2 2.2.3 2.7 3.5 11.6 3.6 11.7l1.9-2.4-3.2-9.9s-.8-1.9-1-2.1h6.5s-.1 1 .2 1.8 1.7 5.9 1.7 5.9 4.4-5.6 4.7-6c.5-.7.6-1.7.6-1.7h5.4s-1 .7-2.7 2.9c-.6.7-6.3 8-6.3 8s.5 1.7.7 2.6c.1.2.1.4.1.4s.1-.1.3-.4c1.5-1.9 8.2-10.7 8.6-11.5.3-.6.8-1.3 1.1-2.1h5.3s.1 1.6.3 2zm-8.1-8.3c-.8 1.7-5.4 7.2-5.4 7.2h7.2s-1.4-4.3-1.7-5.3c-.2-.8-.1-1.8-.1-1.9.1-.1.1-.2 0 0m-27.9 0c-.8 1.7-5.4 7.2-5.4 7.2h7.2s-1.4-4.3-1.6-5.3c-.2-.8-.1-1.8-.1-1.9.1-.1 0-.2-.1 0m11 16.9 2-2.7c-.2-.2-1.3-3.6-1.3-3.6l-1.9 2.5z" fill="#fff"/></svg>