<svg enable-background="new 0 0 144.8 47.6" viewBox="0 0 144.8 47.6" xmlns="http://www.w3.org/2000/svg" xmlns:xlink="http://www.w3.org/1999/xlink"><clipPath id="a"><path d="m19.4 1.5c-3.5 2.1-5.9 5.1-7.8 8.6-.9 1.8-1.5 3-2.4 5 .3.4.5.8.7 1.1 1.1 1.5 5.4 9.1 5.4 9.1l-7 2.1c4.7-1.4 8.9-2.6 13.8-4 .6-.2 1.3-.4 1.6-.9 3.8-4.8 6.4-10.1 5.7-16.3-.3-4-2.5-6.2-5.4-6.2-1.4 0-3 .5-4.6 1.5"/></clipPath><linearGradient id="b" gradientTransform="matrix(-6.6164 -18.1784 -18.1784 6.6164 -5769.8442 -15455.5176)" gradientUnits="userSpaceOnUse" x1="-854.2969" x2="-853.1711" y1="-7.7105" y2="-7.7105"><stop offset="0" stop-color="#64a8ca"/><stop offset=".4005" stop-color="#63a6c8"/><stop offset=".6085" stop-color="#629ec3"/><stop offset=".7721" stop-color="#5f91b9"/><stop offset=".912" stop-color="#5a7eab"/><stop offset=".939" stop-color="#5979a8"/><stop offset="1" stop-color="#5979a8"/></linearGradient><clipPath id="c"><path d="m23.2 24.2c-3.7 1.1-7.7 2.3-7.7 2.3s.3 7.7.3 8.9v1.5c1.9 1.3 4.1 2.5 5.7 3.4 3.3 1.9 6.8 3 10.7 2.9 5.7-.2 8.2-4 5.7-9-2.7-5.3-7.5-8.3-13-10.2-.1 0-.3 0-.5 0-.4 0-.8.1-1.2.2"/></clipPath><linearGradient id="d" gradientTransform="matrix(6.6838 18.3635 18.3635 -6.6838 4542.4639 15001.1436)" gradientUnits="userSpaceOnUse" x1="-799.2959" x2="-798.1701" y1="44.8773" y2="44.8773"><stop offset="0" stop-color="#9cbd4b"/><stop offset=".383" stop-color="#a4c04a"/><stop offset=".6566" stop-color="#91b24a"/><stop offset="1" stop-color="#749c4b"/></linearGradient><g fill="#000f9f"><path d="m51 33.7v9.3h-3.9v-21.2h3.9v8.6zm1.9-2.7c.4-.5 6.1-9.2 6.1-9.2h4.5s-5.4 7.9-6.1 9c-.6 1.1-.5 1.2-.1 1.9s6.6 10.2 6.6 10.2h-4.7s-5.6-8.6-6.1-9.4c-.6-.7-.6-1.9-.2-2.5"/><path d="m64.3 34.2c0-2.7.6-4.8 1.8-6.3s3-2.2 5.5-2.2c1.1 0 2 .2 2.8.5s1.6.8 2.2 1.4 1.1 1.5 1.4 2.5.5 2.2.5 3.5v.9c0 .3 0 .6-.1.9h-10.4c.1 1.7.5 3 1.3 3.7s2 1.1 3.6 1.1 3.1-.3 4.6-.9l.4 3c-.7.4-1.5.7-2.4.9s-1.9.3-3 .3c-2.9 0-4.9-.8-6.2-2.3-1.3-1.7-2-4-2-7m3.7-1.3h7.2c0-1.5-.4-2.5-1-3.2-.6-.6-1.5-.9-2.5-.9-1.2 0-2.1.3-2.7 1-.6.6-.9 1.6-1 3.1"/><path d="m81.3 43v-16.9l2.9-.2.3 3.2h.1c.5-1.1 1.2-1.9 2-2.5s1.8-.9 2.8-.9c.7 0 1.3.1 1.8.2l-.2 3.7c-.3-.1-.5-.2-.8-.2s-.6-.1-.9-.1c-.6 0-1.2.1-1.7.3s-1 .6-1.4 1-.7 1-.9 1.6-.3 1.3-.3 2.1v8.7z"/><path d="m110.6 43v-21.3h3.6v21.3z"/><path d="m118.9 21.8h3.5v4.2h4v2.8h-4v9.5c0 .8.2 1.3.6 1.6s.9.5 1.7.5c.2 0 .5 0 .7-.1.3 0 .5-.1.6-.1l.2 2.7c-.3.1-.7.2-1.1.3-.5.1-1 .1-1.5.1-1.6 0-2.8-.4-3.6-1.3s-1.2-2.1-1.2-3.7z"/><path d="m128.4 26h4.1l3.8 11.3.8 2.1h.1l.6-2.2 3.2-11.2h3.8l-6 17c-.6 1.7-1.4 2.8-2.3 3.5s-2.1 1-3.4 1c-.5 0-1 0-1.4-.1-.5-.1-.9-.2-1.3-.4l.3-2.7c.3.1.6.3.9.3.3.1.6.1.9.1.6 0 1.1-.1 1.6-.4s.8-.7 1.2-1.5l.1-.2z"/><path d="m105.9 29.3c-.2-.8-.6-1.5-1.1-2s-1.2-.9-2-1.2-1.8-.4-3-.4c-2.1 0-4 .3-5.7 1.1l.3 3c.8-.3 1.5-.6 2.3-.7.7-.2 1.5-.2 2.5-.2 1.3 0 2.2.2 2.7.7s.8 1.2.8 2.3v6.1c0 .3-.1.6-.3.9s-.4.5-.7.8c-.3.2-.7.4-1.1.5s-.8.2-1.3.2c-.8 0-1.5-.2-2.1-.6-.5-.4-.8-1.1-.8-2.1 0-.9.3-1.5.8-2s1.4-.7 2.5-.7c.7 0 1.1 0 1.5.2h.2v-2.4c-.2 0-.2-.1-.5-.1-.6-.1-1.2-.2-1.9-.2-2 0-3.5.5-4.6 1.4-1 .9-1.6 2.2-1.6 3.8 0 1.9.5 3.3 1.5 4.2s2.2 1.3 3.8 1.3c1 0 1.9-.2 2.8-.6.8-.4 1.5-.9 2-1.6h.1l.3 1.8h2.7v-10.5c.2-1.2.1-2.1-.1-3"/></g><path clip-path="url(#a)" d="m10.9 34.4-11.4-31.2 28.1-10.2 11.3 31.2z" fill="url(#b)"/><path d="m9.9 16.2c-.2-.3-.4-.7-.7-1.1 0 .1-.1.2-.2.3-.4.9-4.6 12.8-4.6 12.8h.8c1.1-.3 2.1-.6 3.1-.9l7-2.1c0 .1-4.3-7.5-5.4-9" fill="#4577b5"/><path d="m5.6 28.2 2.8-.8c-1 .3-2.1.6-3.1.9 0 0 .1 0 .3-.1" fill="#4577b5"/><path d="m9 15.5c.1-.1.1-.2.2-.3-1.2-1.9-3.1-4.6-4.3-5.8-1.8-1.7-4-1.6-4.7 2-.1.3-.1.7-.1 1-.1 5.4.9 9.6 3 15 .5 1 1.2 1.2 2.2 1h-.8c-.1-.1 4.1-12 4.5-12.9" fill="#628fca"/><path clip-path="url(#c)" d="m37.5 16 9.2 25.1-28.2 10.3-9.2-25.1z" fill="url(#d)"/><path d="m15.9 35.3c0-1.2-.4-8.9-.4-8.9l-3.5 1.1c-1.9.6-3.9 1.2-5.8 1.8l-1.2.6s8.1 5 10.6 6.7c.1.1.2.1.3.2 0-.6 0-1.2 0-1.5" fill="#549467"/><path d="m5 29.8 1.2-.6c1.9-.6-.4.1-.4.1-1 .4-1.5.9-1.3 2 1.4 4.3 2.8 8.4 5.8 12.2.2.2.4.4.6.6 2.5 2.2 4.1 2.1 4.7-1.1.3-1.4.3-4.2.3-6.1-.1-.1-.2-.2-.3-.2-2.6-1.8-10.6-6.9-10.6-6.9" fill="#7ab48f"/></svg>