<svg enable-background="new 0 0 86.6 86.6" viewBox="0 0 86.6 86.6" xmlns="http://www.w3.org/2000/svg"><ellipse cx="43.3" cy="43.3" fill="#ffce00" rx="43.3" ry="43.3" transform="matrix(.2305 -.9731 .9731 .2305 -8.8109 75.4138)"/><g fill="#562912"><path d="m63 56.7h-39.5c-1.2 0-2.1-.9-2.1-2.1s.9-2.1 2.1-2.1h39.5c1.2 0 2.1.9 2.1 2.1s-.9 2.1-2.1 2.1z"/><path d="m65.9 35.9c0 2.5-2 4.6-4.6 4.6-2.5 0-4.6-2-4.6-4.6 0-2.5 2-4.6 4.6-4.6s4.6 2.1 4.6 4.6z"/><path d="m29.8 35.9c0 2.5-2 4.6-4.6 4.6-2.5 0-4.6-2-4.6-4.6 0-2.5 2-4.6 4.6-4.6 2.5 0 4.6 2.1 4.6 4.6z"/></g></svg>