<svg enable-background="new 0 0 86.6 86.6" viewBox="0 0 86.6 86.6" xmlns="http://www.w3.org/2000/svg"><path d="m86.6 43.3c0 23.9-19.4 43.3-43.3 43.3s-43.3-19.4-43.3-43.3 19.4-43.3 43.3-43.3 43.3 19.4 43.3 43.3z" fill="#ffce00"/><g fill="#562912"><path d="m71.9 37.7c.4.3 1 0 1-.6 0-3.2-2.6-5.7-5.7-5.7-3.2 0-5.7 2.6-5.7 5.7 0 .5.6.8 1 .6 1.4-.8 3-1.3 4.7-1.3s3.3.5 4.7 1.3z"/><path d="m24 37.7c.4.3 1 0 1-.6 0-3.2-2.6-5.7-5.7-5.7-3.2 0-5.7 2.6-5.7 5.7 0 .5.6.8 1 .6 1.4-.8 3-1.3 4.7-1.3 1.8 0 3.4.5 4.7 1.3z"/><path d="m21.1 49.8c-1.4.5-2.2 2-1.6 3.3 3.2 8.2 12.7 15 23.8 15s20.5-6.9 23.8-15c.5-1.4-.3-2.9-1.6-3.3-13.5-4.5-31-4.5-44.4 0z"/></g><path d="m31.4 65.4c3.5 1.7 7.6 2.8 11.9 2.8s8.4-1 11.9-2.8c-3.3-2.5-7.4-4-11.9-4s-8.6 1.5-11.9 4z" fill="#cc342f"/></svg>